<svg xmlns="http://www.w3.org/2000/svg" viewBox="0 0 100 100">
  <path
    fill="none"
    stroke="currentColor"
    stroke-width="10"
    d="
      M 10 5
      L 10 80
      A 12 12 0 0 0 34 80
      L 34 5
      z
      M 0 5
      L 45 5
    "
  />
  <path
    fill="currentColor"
    d="
      M 10 45
      L 10 80
      A 12 12 0 0 0 34 80
      L 34 45
      z
    "
  />
  <path
    fill="none"
    stroke="currentColor"
    stroke-width="10"
    d="
      M 60 5
      L 60 80
      A 12 12 0 0 0 84 80
      L 84 5
      z
      M 50 5
      L 95 5
    "
  />
  <path
    fill="currentColor"
    d="
      M 60 65
      L 60 80
      A 12 12 0 0 0 84 80
      L 84 65
      z
    "
  />
</svg>
