<svg
  xmlns="http://www.w3.org/2000/svg"
  width="50"
  height="50"
  viewBox="-50 -50 100 100"
>
  <g>
    <path
      fill="none"
      stroke="#00bcd4"
      stroke-width="5.5"
      transform="scale(1)"
      d="
        M -41.04 -18.47 A 45.00 45.00 0 0 0 -42.96 -13.39
      "
    />
    <path
      fill="none"
      stroke="#00bcd4"
      stroke-width="5.5"
      transform="scale(0.7952707288)"
      d="
        M -18.47 -41.04 A 45.00 45.00 0 0 0 -23.28 -38.51
        M -35.42 -27.75 A 45.00 45.00 0 0 0 -38.51 -23.28
        M -41.04 -18.47 A 45.00 45.00 0 0 0 -42.96 -13.39
        M -44.92 2.72 A 45.00 45.00 0 0 0 -44.26 8.11
        M -38.51 23.28 A 45.00 45.00 0 0 0 -35.42 27.75
      "
    />
    <path
      fill="none"
      stroke="#009688"
      stroke-width="5.5"
      transform="scale(0.632455532)"
      d="
        M 23.28 -38.51 A 45.00 45.00 0 0 0 18.47 -41.04
        M 2.72 -44.92 A 45.00 45.00 0 0 0 -2.72 -44.92
        M -8.11 -44.26 A 45.00 45.00 0 0 0 -13.39 -42.96
        M -18.47 -41.04 A 45.00 45.00 0 0 0 -23.28 -38.51
        M -27.75 -35.42 A 45.00 45.00 0 0 0 -31.82 -31.82
        M -35.42 -27.75 A 45.00 45.00 0 0 0 -38.51 -23.28
        M -41.04 -18.47 A 45.00 45.00 0 0 0 -42.96 -13.39
        M -44.26 -8.11 A 45.00 45.00 0 0 0 -44.92 -2.72
        M -44.92 2.72 A 45.00 45.00 0 0 0 -44.26 8.11
        M -42.96 13.39 A 45.00 45.00 0 0 0 -41.04 18.47
        M -38.51 23.28 A 45.00 45.00 0 0 0 -35.42 27.75
        M -31.82 31.82 A 45.00 45.00 0 0 0 -27.75 35.42
        M -13.39 42.96 A 45.00 45.00 0 0 0 -8.11 44.26
        M -2.72 44.92 A 45.00 45.00 0 0 0 2.72 44.92
        M 18.47 41.04 A 45.00 45.00 0 0 0 23.28 38.51
      "
    />
    <path
      fill="none"
      stroke="#009688"
      stroke-width="5.5"
      transform="scale(0.5029733719)"
      d="
        M 23.28 -38.51 A 45.00 45.00 0 0 0 18.47 -41.04
        M 13.39 -42.96 A 45.00 45.00 0 0 0 8.11 -44.26
        M -8.11 -44.26 A 45.00 45.00 0 0 0 -13.39 -42.96
        M -18.47 -41.04 A 45.00 45.00 0 0 0 -23.28 -38.51
        M -27.75 -35.42 A 45.00 45.00 0 0 0 -31.82 -31.82
        M -35.42 -27.75 A 45.00 45.00 0 0 0 -38.51 -23.28
        M -41.04 -18.47 A 45.00 45.00 0 0 0 -42.96 -13.39
        M -44.26 -8.11 A 45.00 45.00 0 0 0 -44.92 -2.72
        M -42.96 13.39 A 45.00 45.00 0 0 0 -41.04 18.47
        M -38.51 23.28 A 45.00 45.00 0 0 0 -35.42 27.75
        M -31.82 31.82 A 45.00 45.00 0 0 0 -27.75 35.42
        M -23.28 38.51 A 45.00 45.00 0 0 0 -18.47 41.04
        M -13.39 42.96 A 45.00 45.00 0 0 0 -8.11 44.26
        M -2.72 44.92 A 45.00 45.00 0 0 0 2.72 44.92
        M 8.11 44.26 A 45.00 45.00 0 0 0 13.39 42.96
        M 18.47 41.04 A 45.00 45.00 0 0 0 23.28 38.51
      "
    />
    <path
      fill="none"
      stroke="#4caf50"
      stroke-width="5.5"
      transform="scale(0.4)"
      d="
        M 23.28 -38.51 A 45.00 45.00 0 0 0 18.47 -41.04
        M 13.39 -42.96 A 45.00 45.00 0 0 0 8.11 -44.26
        M 2.72 -44.92 A 45.00 45.00 0 0 0 -2.72 -44.92
        M -8.11 -44.26 A 45.00 45.00 0 0 0 -13.39 -42.96
        M -18.47 -41.04 A 45.00 45.00 0 0 0 -23.28 -38.51
        M -27.75 -35.42 A 45.00 45.00 0 0 0 -31.82 -31.82
        M -41.04 -18.47 A 45.00 45.00 0 0 0 -42.96 -13.39
        M -44.26 -8.11 A 45.00 45.00 0 0 0 -44.92 -2.72
        M -44.92 2.72 A 45.00 45.00 0 0 0 -44.26 8.11
        M -42.96 13.39 A 45.00 45.00 0 0 0 -41.04 18.47
        M -23.28 38.51 A 45.00 45.00 0 0 0 -18.47 41.04
        M -13.39 42.96 A 45.00 45.00 0 0 0 -8.11 44.26
        M 8.11 44.26 A 45.00 45.00 0 0 0 13.39 42.96
        M 18.47 41.04 A 45.00 45.00 0 0 0 23.28 38.51
      "
    />
  </g>
</svg>
