<svg xmlns="http://www.w3.org/2000/svg" viewBox="-45 -25 70 35">
  <path
    fill="none"
    stroke="#22577a"
    stroke-width="3"
    stroke-linejoin="round"
    stroke-linecap="round"
    d="
      M -26 -15
      A 20 16 0 0 0 -40 0
      A 5 5 0 0 0 -35 5
      M -40 0
      L -35 0
    "
  />
  <path
    fill="none"
    stroke="#38a3a5"
    stroke-width="3"
    stroke-linejoin="round"
    stroke-linecap="round"
    d="
      M -16 -15
      A 20 16 0 0 0 -30 0
      A 5 5 0 0 0 -25 5
      M -30 0
      L -25 0
    "
  />
  <path
    fill="none"
    stroke="#57cc99"
    stroke-width="3"
    stroke-linejoin="round"
    stroke-linecap="round"
    d="
      M -20 0
      L 20 0
      A 20 16 0 0 0 8 -15
      A 7 7 0 1 0 -6 -15
      A 20 16 0 0 0 -20 0
      A 5 5 0 0 0 -15 5
      L 0 5
      M -6 -15
      A 7 7 0 0 0 -2 -9
      M 10 -5
      A 1 1 0 0 0 10 -7
      A 1 1 0 0 0 10 -5
    "
  />
</svg>
